<?xml version="1.0" standalone="no"?>
<!DOCTYPE svg PUBLIC "-//W3C//DTD SVG 20010904//EN"
 "http://www.w3.org/TR/2001/REC-SVG-20010904/DTD/svg10.dtd">
<svg version="1.0" xmlns="http://www.w3.org/2000/svg"
 width="512.000000pt" height="512.000000pt" viewBox="0 0 512.000000 512.000000"
 preserveAspectRatio="xMidYMid meet">

<g transform="translate(0.000000,512.000000) scale(0.100000,-0.100000)"
fill="#000000" stroke="none">
<path d="M2415 4554 c-170 -25 -299 -66 -439 -137 -683 -349 -904 -1217 -473
-1857 62 -92 206 -242 288 -301 34 -24 70 -51 81 -59 13 -11 32 -65 62 -188
l44 -172 -69 0 -69 0 0 -240 0 -240 80 0 80 0 0 -51 c0 -42 7 -63 37 -113 46
-75 154 -184 228 -228 l55 -33 0 -187 0 -188 240 0 240 0 0 188 0 187 52 30
c69 40 186 158 231 232 30 49 37 71 37 112 l0 51 80 0 80 0 0 240 0 240 -69 0
-69 0 35 138 c19 75 38 153 44 173 7 30 24 48 92 97 378 275 580 752 513 1212
-78 533 -465 949 -996 1071 -83 19 -343 34 -415 23z m301 -165 c565 -78 987
-583 961 -1149 -14 -296 -123 -545 -327 -750 -74 -74 -197 -168 -243 -186 -10
-3 -33 -79 -72 -235 l-57 -229 -419 0 -418 0 -10 38 c-5 20 -31 123 -56 227
l-46 190 -81 50 c-98 61 -246 204 -309 300 -127 191 -185 370 -196 595 -23
505 316 976 803 1115 154 44 315 56 470 34z m404 -2789 l0 -80 -560 0 -560 0
0 80 0 80 560 0 560 0 0 -80z m-160 -271 c0 -55 -105 -176 -201 -232 -160 -92
-341 -68 -486 66 -66 61 -113 130 -113 166 l0 31 400 0 400 0 0 -31z m-320
-526 l0 -83 -80 0 -80 0 0 83 0 82 80 0 80 0 0 -82z"/>
<path d="M2080 3680 l0 -80 40 0 40 0 0 -400 0 -400 80 0 80 0 0 -40 0 -40 80
0 80 0 0 40 0 40 80 0 80 0 0 -40 0 -40 80 0 80 0 0 40 0 40 69 0 69 0 103
308 c56 169 104 313 107 320 3 9 -83 12 -412 12 l-416 0 0 160 0 160 -120 0
-120 0 0 -80z m796 -557 l-53 -158 -251 -3 -252 -2 0 160 0 160 304 0 304 0
-52 -157z"/>
</g>
</svg>
